<?xml version="1.0" standalone="no"?>
<!DOCTYPE svg PUBLIC "-//W3C//DTD SVG 20010904//EN"
 "http://www.w3.org/TR/2001/REC-SVG-20010904/DTD/svg10.dtd">
<svg version="1.0" xmlns="http://www.w3.org/2000/svg"
 width="48.000000pt" height="46.000000pt" viewBox="0 0 48.000000 46.000000"
 preserveAspectRatio="xMidYMid meet">

<g transform="translate(0.000000,46.000000) scale(0.100000,-0.100000)"
fill="#000000" stroke="none">
<path d="M0 230 l0 -230 240 0 240 0 0 230 0 230 -240 0 -240 0 0 -230z m200
0 l0 -210 -40 0 -40 0 0 210 0 210 40 0 40 0 0 -210z m150 0 l0 -210 -40 0
-40 0 0 210 0 210 40 0 40 0 0 -210z"/>
</g>
</svg>
